<svg width="63" height="73" viewBox="0 0 63 73" fill="none" xmlns="http://www.w3.org/2000/svg">
<g clip-path="url(#clip0_1431_1122)">
<rect width="63" height="73" fill="white"/>
<path d="M16.6 58.3C17.3333 58.3667 18.1667 58.4333 19.1 58.5C20.1 58.5 21.2667 58.5 22.6 58.5C30.4 58.5 36.1667 56.5333 39.9 52.6C43.7 48.6667 45.6 43.2333 45.6 36.3C45.6 29.0333 43.8 23.5333 40.2 19.8C36.6 16.0667 30.9 14.2 23.1 14.2C22.0333 14.2 20.9333 14.2333 19.8 14.3C18.6667 14.3 17.6 14.3667 16.6 14.5V58.3ZM61.7 36.3C61.7 42.3 60.7667 47.5333 58.9 52C57.0333 56.4667 54.3667 60.1667 50.9 63.1C47.5 66.0333 43.3333 68.2333 38.4 69.7C33.4667 71.1667 27.9333 71.9 21.8 71.9C19 71.9 15.7333 71.7667 12 71.5C8.26667 71.3 4.6 70.8333 1 70.1V2.6C4.6 1.93333 8.33333 1.5 12.2 1.3C16.1333 1.03333 19.5 0.899997 22.3 0.899997C28.2333 0.899997 33.6 1.56666 38.4 2.89999C43.2667 4.23333 47.4333 6.33333 50.9 9.2C54.3667 12.0667 57.0333 15.7333 58.9 20.2C60.7667 24.6667 61.7 30.0333 61.7 36.3Z" fill="black"/>
<path d="M26.686 58.744C30.682 58.744 33.79 58.0287 36.01 56.598C38.23 55.118 39.34 52.75 39.34 49.494C39.34 47.6193 38.97 46.0653 38.23 44.832C37.5393 43.5493 36.602 42.4887 35.418 41.65C34.234 40.762 32.8773 40.022 31.348 39.43C29.8187 38.7887 28.2153 38.1227 26.538 37.432C24.4167 36.5933 22.5173 35.73 20.84 34.842C19.1627 33.954 17.732 32.9673 16.548 31.882C15.364 30.7473 14.4513 29.4647 13.81 28.034C13.218 26.6033 12.922 24.926 12.922 23.002C12.922 18.6113 14.3773 15.2813 17.288 13.012C20.1987 10.7427 24.244 9.608 29.424 9.608C30.8053 9.608 32.162 9.70667 33.494 9.904C34.826 10.1013 36.0593 10.3727 37.194 10.718C38.378 11.014 39.4387 11.3593 40.376 11.754C41.3627 12.1487 42.1767 12.568 42.818 13.012L41.042 17.23C39.6113 16.2433 37.86 15.454 35.788 14.862C33.7653 14.27 31.57 13.974 29.202 13.974C27.574 13.974 26.0693 14.1467 24.688 14.492C23.356 14.788 22.1967 15.306 21.21 16.046C20.2233 16.7367 19.434 17.6247 18.842 18.71C18.2993 19.7953 18.028 21.1027 18.028 22.632C18.028 24.2107 18.324 25.5427 18.916 26.628C19.508 27.7133 20.322 28.6507 21.358 29.44C22.4433 30.2293 23.7013 30.9447 25.132 31.586C26.5627 32.2273 28.1167 32.8933 29.794 33.584C31.8167 34.4227 33.716 35.2613 35.492 36.1C37.3173 36.9387 38.896 37.9253 40.228 39.06C41.56 40.1947 42.6207 41.576 43.41 43.204C44.1993 44.832 44.594 46.83 44.594 49.198C44.594 53.8353 42.966 57.3133 39.71 59.632C36.5033 61.9507 32.1373 63.11 26.612 63.11C24.6387 63.11 22.838 62.9867 21.21 62.74C19.582 62.4933 18.1267 62.1973 16.844 61.852C15.5613 61.4573 14.476 61.0627 13.588 60.668C12.7 60.2733 12.0093 59.928 11.516 59.632L13.144 55.266C13.6373 55.562 14.3033 55.9073 15.142 56.302C15.9807 56.6967 16.9673 57.0913 18.102 57.486C19.2367 57.8313 20.5193 58.1273 21.95 58.374C23.3807 58.6207 24.9593 58.744 26.686 58.744Z" fill="black"/>
</g>
<defs>
<clipPath id="clip0_1431_1122">
<rect width="63" height="73" fill="white"/>
</clipPath>
</defs>
</svg>
